{
    "asset": {
        "version": "2.0",
        "generator": "Open Asset Import Library (assimp v5.0.5eb040c7)"
    },
    "accessors": [
        {
            "bufferView": 0,
            "byteOffset": 0,
            "componentType": 5126,
            "count": 42,
            "type": "VEC3",
            "max": [
                0.04536899924278259,
                0.9497780203819275,
                0.1966570019721985
            ],
            "min": [
                -0.04536899924278259,
                -0.0,
                -0.1966570019721985
            ]
        },
        {
            "bufferView": 1,
            "byteOffset": 0,
            "componentType": 5126,
            "count": 42,
            "type": "VEC3",
            "max": [
                1.0,
                0.4592810571193695,
                1.0
            ],
            "min": [
                -1.0,
                -1.0,
                -1.0
            ]
        },
        {
            "bufferView": 2,
            "byteOffset": 0,
            "componentType": 5126,
            "count": 42,
            "type": "VEC2",
            "max": [
                0.9980080127716065,
                0.998199999332428
            ],
            "min": [
                0.0019920000340789558,
                0.09821897745132446
            ]
        },
        {
            "bufferView": 3,
            "byteOffset": 0,
            "componentType": 5125,
            "count": 72,
            "type": "SCALAR",
            "max": [
                41
            ],
            "min": [
                0
            ]
        }
    ],
    "buffers": [
        {
            "byteLength": 1632,
            "uri": "result.bin"
        }
    ],
    "bufferViews": [
        {
            "buffer": 0,
            "byteOffset": 0,
            "byteLength": 504,
            "target": 34962
        },
        {
            "buffer": 0,
            "byteOffset": 504,
            "byteLength": 504,
            "target": 34962
        },
        {
            "buffer": 0,
            "byteOffset": 1008,
            "byteLength": 336,
            "target": 34962
        },
        {
            "buffer": 0,
            "byteOffset": 1344,
            "byteLength": 288,
            "target": 34963
        }
    ],
    "materials": [
        {
            "name": "DefaultMaterial",
            "pbrMetallicRoughness": {
                "baseColorFactor": [
                    0.6000000238418579,
                    0.6000000238418579,
                    0.6000000238418579,
                    1.0
                ],
                "metallicFactor": 0.0
            }
        }
    ],
    "meshes": [
        {
            "name": "Arrow1",
            "primitives": [
                {
                    "mode": 4,
                    "material": 0,
                    "indices": 3,
                    "attributes": {
                        "POSITION": 0,
                        "NORMAL": 1,
                        "TEXCOORD_0": 2
                    }
                }
            ]
        }
    ],
    "nodes": [
        {
            "name": "input.obj",
            "children": [
                1,
                2
            ]
        },
        {
            "name": "default"
        },
        {
            "name": "Arrow1",
            "mesh": 0
        }
    ],
    "scenes": [
        {
            "nodes": [
                0
            ]
        }
    ],
    "scene": 0
}